Coordinates
version=1
nRows=4
nColumns=63
inDegrees=yes

Units are S.I. units (second, meters, Newtons, ...)
If the header above contains a line with 'inDegrees', this indicates whether rotational values are in degrees (yes) or radians (no).

endheader
time	pelvis_tilt	pelvis_list	pelvis_rotation	pelvis_tx	pelvis_ty	pelvis_tz	hip_flexion_r	hip_adduction_r	hip_rotation_r	knee_angle_r	knee_angle_r_beta	ankle_angle_r	subtalar_angle_r	mtp_angle_r	hip_flexion_l	hip_adduction_l	hip_rotation_l	knee_angle_l	knee_angle_l_beta	ankle_angle_l	subtalar_angle_l	mtp_angle_l	L5_S1_Flex_Ext	L5_S1_Lat_Bending	L5_S1_axial_rotation	L4_L5_Flex_Ext	L4_L5_Lat_Bending	L4_L5_axial_rotation	L3_L4_Flex_Ext	L3_L4_Lat_Bending	L3_L4_axial_rotation	L2_L3_Flex_Ext	L2_L3_Lat_Bending	L2_L3_axial_rotation	L1_L2_Flex_Ext	L1_L2_Lat_Bending	L1_L2_axial_rotation	L1_T12_Flex_Ext	L1_T12_Lat_Bending	L1_T12_axial_rotation	Abs_r3	Abs_r2	Abs_r1	Abs_t1	Abs_t2	neck_flexion	neck_bending	neck_rotation	arm_flex_r	arm_add_r	arm_rot_r	elbow_flex_r	pro_sup_r	wrist_flex_r	wrist_dev_r	arm_flex_l	arm_add_l	arm_rot_l	elbow_flex_l	pro_sup_l	wrist_flex_l	wrist_dev_l
      3.86700000	    -50.40016240	     -4.46893931	      2.74515614	     -0.37102566	      1.11687356	      0.05160117	    107.11957552	     -7.62088748	     -5.17388900	     78.40274338	      1.36838601	      9.26421026	      1.37865309	      0.00000000	     95.80298446	     -8.83273253	      1.06742644	     95.04102278	      1.65877877	     12.87797162	      9.57489139	      0.00000000	     -0.08976152	      0.45537872	      0.36039170	     -0.16669612	      0.60565370	      0.38291618	     -0.14746920	      1.10720783	      0.38291618	     -0.10258844	      1.10720783	      0.31534274	     -0.08335255	      0.92860829	      0.29281826	     -0.05128973	      0.70538164	      0.27029378	     -0.64115755	      5.15133520	      2.00439052	      0.00000000	      0.00000000	      0.00000000	      0.00000000	      0.00000000	     72.24509886	    -15.47079292	     14.68757566	     34.61164607	     53.03154527	      0.00000000	      4.99997428	     68.73217468	     -7.09415857	     14.72169778	     36.90923443	     52.47840547	      0.00000000	      4.99997428
      3.87500000	    -50.42097795	     -4.34538206	      3.02929087	     -0.37080378	      1.11708540	      0.05118436	    106.06777613	     -7.78891767	     -5.18843270	     76.61923493	      1.33725792	      8.97016172	      1.37087711	      0.00000000	     96.49721315	     -8.42111390	      1.34457390	     96.44577278	      1.68329628	     13.09759857	      9.82023503	      0.00000000	     -0.08975403	      0.43288374	      0.29549625	     -0.16668221	      0.57573537	      0.31396476	     -0.14745690	      1.05251352	      0.31396476	     -0.10257988	      1.05251352	      0.25855922	     -0.08334559	      0.88273652	      0.24009070	     -0.05128545	      0.67053691	      0.22162218	     -0.64110407	      4.89686744	      1.64346147	      0.00000000	      0.00000000	      0.00000000	      0.00000000	      0.00000000	     72.16897229	    -15.39228466	     14.72174537	     34.62254044	     53.05279776	      0.00000000	      4.99997445	     68.76244369	     -7.17475642	     14.70159319	     36.92046036	     52.49109417	      0.00000000	      4.99997445
      3.88300000	    -50.41319954	     -4.83561198	      2.88473632	     -0.37047850	      1.11721685	      0.05093757	    104.75518665	     -7.68984042	     -6.10641242	     74.68173876	      1.30344223	      8.85149998	      1.17067737	      0.00000000	     97.47567251	     -8.40036318	      2.42653558	     98.03702051	      1.71106880	     13.39695183	     10.88794420	      0.00000000	     -0.08954264	      0.49366637	      0.31428884	     -0.16628964	      0.65657628	      0.33393190	     -0.14710961	      1.20030042	      0.33393190	     -0.10233829	      1.20030042	      0.27500274	     -0.08314930	      1.00668447	      0.25535969	     -0.05116467	      0.76468921	      0.23571663	     -0.63959414	      5.58445274	      1.74798026	      0.00000000	      0.00000000	      0.00000000	      0.00000000	      0.00000000	     72.28750012	    -15.40524679	     14.70223909	     34.49408257	     53.13070420	      0.00000000	      4.99997522	     68.65886963	     -7.10686730	     14.64493215	     37.01243248	     52.54681799	      0.00000000	      4.99997522
      3.89200000	    -50.43016776	     -4.91706669	      2.94834303	     -0.37018726	      1.11740629	      0.05070135	    103.57128613	     -7.66136736	     -6.47745001	     72.82201736	      1.27098397	      8.73338425	      1.10572658	      0.00000000	     98.33257717	     -8.17652460	      2.96290571	     99.41517681	      1.73512216	     13.55982176	     11.33827865	      0.00000000	     -0.08983103	      0.49915153	      0.29166178	     -0.16682521	      0.66387153	      0.30989064	     -0.14758340	      1.21363703	      0.30989064	     -0.10266789	      1.21363703	      0.25520406	     -0.08341710	      1.01786980	      0.23697520	     -0.05132945	      0.77318572	      0.21874634	     -0.64165408	      5.64650192	      1.62213533	      0.00000000	      0.00000000	      0.00000000	      0.00000000	      0.00000000	     72.29286326	    -15.34408801	     14.67320204	     34.44649123	     53.17023950	      0.00000000	      4.99997565	     68.65922615	     -7.08810173	     14.60405278	     37.01348497	     52.57738008	      0.00000000	      4.99997565
